<svg viewBox="0 0 1440 320" xmlns="http://www.w3.org/2000/svg">
    <defs>
        <linearGradient id="waveGradient" x1="0%" y1="0%" x2="100%" y2="100%">
            <stop offset="0%" stop-color="#87CEFA" />     <!-- светло-синий -->
            <stop offset="100%" stop-color="#6966FF" />   <!-- цвет кнопки -->
        </linearGradient>
    </defs>

    <path fill="url(#waveGradient)" d="M0,160L60,165.3C120,171,240,181,360,170.7C480,160,600,128,720,117.3C840,107,960,117,1080,138.7C1200,160,1320,192,1380,208L1440,224L1440,320L1380,320C1320,320,1200,320,1080,320C960,320,840,320,720,320C600,320,480,320,360,320C240,320,120,320,60,320L0,320Z"/>
</svg>