<?xml version="1.0" encoding="UTF-8"?>
<svg version="1.1" xmlns="http://www.w3.org/2000/svg" width="512" height="512">
<path d="M0 0 C15.40066176 0.33087359 29.60892678 6.38936441 40.30664062 17.34228516 C50.60264254 28.70230091 54.44928278 43.15573895 54.375 58.25 C52.98373727 72.01302914 47.00104858 86.10309738 36.375 95.25 C29.2071132 100.61138123 21.61787122 106.25 12.375 106.25 C14.10927179 115.81892065 16.46927508 125.3617643 23.56640625 132.43359375 C25.375 134.25 25.375 134.25 25.375 136.25 C25.94992188 136.52070313 26.52484375 136.79140625 27.1171875 137.0703125 C29.40304236 138.26465189 31.40065294 139.62989305 33.5 141.125 C40.94011735 146.14646534 48.99939008 149.3338669 58.03840637 149.40821838 C58.94559418 149.4180072 59.85278198 149.42779602 60.78746033 149.43788147 C61.77001297 149.44363693 62.75256561 149.4493924 63.76489258 149.45532227 C64.80925476 149.46522186 65.85361694 149.47512146 66.92962646 149.48532104 C70.37623845 149.51686909 73.82286422 149.54166708 77.26953125 149.56640625 C79.66135513 149.58698155 82.05317543 149.60797818 84.44499207 149.62937927 C90.73645112 149.6845404 97.02794267 149.73397599 103.31945801 149.78222656 C109.74099617 149.83248507 116.16248722 149.88814844 122.58398438 149.94335938 C135.18094906 150.05086807 147.77795398 150.15251281 160.375 150.25 C160.50555283 149.63434677 160.63610565 149.01869354 160.77061462 148.38438416 C161.03292625 147.17112206 161.03292625 147.17112206 161.30053711 145.93334961 C161.47233994 145.13207138 161.64414276 144.33079315 161.82115173 143.50523376 C164.78499168 131.43667215 174.75612984 121.33861255 184.83984375 114.71484375 C198.52009327 106.81023116 213.83023511 105.2737285 229.0625 109.13671875 C243.84265235 114.10410486 254.99220476 123.5862118 262.02734375 137.5234375 C267.37742698 150.08450248 268.89273321 165.6403974 264.8125 178.875 C258.89666311 193.38632116 249.13035604 204.30950112 234.890625 210.84375 C220.19836577 216.72065369 206.2116457 216.57948431 191.375 211.25 C176.00923508 204.37724767 167.09192403 192.70790111 161.0390625 177.37890625 C160.375 175.25 160.375 175.25 160.375 172.25 C159.81676261 172.25368717 159.25852522 172.25737434 158.68337154 172.26117325 C145.03376454 172.34991824 131.38420881 172.4156434 117.73437405 172.45724869 C111.13310875 172.47805063 104.53205296 172.50623268 97.9309082 172.55175781 C91.55070522 172.59547976 85.17070273 172.6191926 78.7903614 172.62950897 C76.3661083 172.63685323 73.94186515 172.65119377 71.51769829 172.67292023 C55.63225628 172.80952476 41.39650162 172.38457924 27 164.9375 C25.94039063 164.40511719 24.88078125 163.87273437 23.7890625 163.32421875 C19.40851698 160.6628118 15.4209415 157.39684339 11.375 154.25 C11.045 174.38 10.715 194.51 10.375 215.25 C13.345 215.91 16.315 216.57 19.375 217.25 C33.09320856 222.56027428 43.21720152 232.3401594 49.34375 245.7109375 C55.31534355 260.41372465 55.14040659 275.58086334 49.15625 290.234375 C42.4554566 304.90166722 31.48578598 313.87029526 16.56640625 319.5234375 C3.16825836 323.96560418 -13.08254867 322.38779533 -25.625 316.25 C-29.58584478 313.8774639 -33.12608844 311.25732894 -36.625 308.25 C-37.62466797 307.39921875 -37.62466797 307.39921875 -38.64453125 306.53125 C-48.06118392 297.83264274 -53.25982116 285.88302341 -54.0078125 273.171875 C-54.59345267 255.45307701 -50.11546656 241.51445641 -37.8828125 228.3515625 C-31.34267449 222.2640292 -20.92841888 215.25 -11.625 215.25 C-11.955 179.61 -12.285 143.97 -12.625 107.25 C-16.915 105.6 -21.205 103.95 -25.625 102.25 C-29.22115179 99.9919512 -32.37297932 97.8965913 -35.625 95.25 C-36.24890625 94.75113281 -36.8728125 94.25226563 -37.515625 93.73828125 C-47.40401884 84.89663181 -52.92808348 71.57872542 -53.8984375 58.58984375 C-54.30120527 43.3621237 -50.398471 29.6433557 -40.375 17.9375 C-29.12670249 6.25873519 -16.00002154 1.10344976 0 0 Z M-25.625 35.25 C-31.10546353 44.07890903 -32.97868014 52.3887199 -31.19921875 62.72265625 C-28.84357734 70.91681993 -23.80528487 77.18479473 -16.625 81.6875 C-8.88850528 85.89998053 -1.52646014 87.65591133 7.11328125 85.59765625 C15.72459772 82.8225017 22.2958814 77.77462016 27.375 70.25 C31.53054368 61.6310946 32.80467571 53.90135213 29.75 44.75 C26.13815633 35.6511743 21.01605003 29.89112934 12.375 25.25 C-1.6180983 19.4415441 -16.01184876 24.11998071 -25.625 35.25 Z M191.140625 138.33203125 C184.3224024 145.63549232 180.97290526 152.86126919 181.1640625 163.01171875 C182.07443961 172.67183137 186.39201366 179.35552447 193.1875 186 C201.06060658 191.55748699 208.80154586 194.18487162 218.375 192.5625 C227.94295689 190.32412476 235.41064701 185.55640592 240.73046875 177.09375 C244.74272665 169.32995854 245.76955586 161.11385536 243.7265625 152.5234375 C240.55149277 143.75807407 234.45533446 136.87270297 226.375 132.25 C214.0952049 127.02455528 200.91773939 129.22153829 191.140625 138.33203125 Z M-25.37890625 248.390625 C-31.12501479 256.53209927 -32.60891894 264.38558191 -31.625 274.25 C-29.83932632 282.00298827 -25.6110725 288.07974658 -19.625 293.25 C-10.69674644 298.79213073 -2.0919017 300.88955778 8.328125 298.6015625 C17.71118337 295.53503225 23.30274114 290.83622518 27.8125 282.0625 C31.99702914 273.18035232 32.35559925 265.88908569 29.28125 256.56640625 C26.2642438 248.85483438 20.26480976 242.32606072 12.75 238.875 C-0.98563864 233.45486603 -15.84288193 236.75200289 -25.37890625 248.390625 Z " fill="#000000" transform="translate(149.625,94.75)"/>
</svg>
